<svg width="162" height="58" fill="none" xmlns="http://www.w3.org/2000/svg"><path fill-rule="evenodd" clip-rule="evenodd" d="M144.06 15.66c-1.07 0-1.52.97-1.6 1.68h3.02c.01-.64-.27-1.68-1.42-1.68zm-67.31 3.76c0 .67.44.98.98.98.7 0 1.2-.45 1.37-.94.04-.13.04-.25.04-.38v-.94c-1.22-.02-2.4.24-2.4 1.28h.01zm33.3-3.69c-1.22 0-1.72 1.2-1.72 2.34 0 1.32.67 2.32 1.7 2.32 1 0 1.68-.96 1.68-2.35 0-1.07-.48-2.3-1.66-2.3v-.01zm-11.63-.07c-1.06 0-1.52.97-1.59 1.68h3.02c0-.64-.27-1.68-1.43-1.68zm-12.45.17c-.7 0-1.35.5-1.54 1.27-.03.12-.05.28-.05.45v1.1a1.58 1.58 0 001.58 1.62c1.08 0 1.74-.85 1.74-2.24 0-1.21-.58-2.2-1.73-2.2zm61.1 22.38h-8.87a3.835 3.835 0 001.29 3c.74.62 1.7.93 2.9.93 1.31 0 2.5-.2 3.58-.63l.47 2.06c-1.26.55-2.75.81-4.47.81-2.06 0-3.68-.6-4.85-1.81a6.723 6.723 0 01-1.77-4.89c0-2 .55-3.67 1.64-5.01a5.684 5.684 0 014.66-2.13c1.92 0 3.37.7 4.35 2.13a7.206 7.206 0 011.18 4.2c0 .52-.04.97-.11 1.34zm-12.2-20.83v4.1h-1.73V11.5h1.73v4.06h.03c.2-.32.5-.59.85-.77.35-.2.76-.31 1.2-.31 1.17 0 2.4.77 2.4 2.97v4.04h-1.74v-3.86c0-.98-.37-1.74-1.32-1.74-.68 0-1.16.45-1.35.97-.06.15-.07.33-.07.52zm-.45 16.06c-.3-.05-.6-.08-.93-.08a2.805 2.805 0 00-2.41 1.18 4.4 4.4 0 00-.74 2.62v6.98h-2.96v-9.12c0-1.52-.02-2.92-.07-4.18h2.57l.1 2.54h.09c.3-.87.8-1.57 1.48-2.1a3.54 3.54 0 012.13-.7c.28 0 .52 0 .74.04v2.82zm-7.59-18.8h.97v-1.29l1.7-.48v1.76h1.65v1.3h-1.65v3.02c0 .85.23 1.27.89 1.27.3 0 .48-.02.68-.07l.02 1.3c-.25.1-.71.2-1.25.2-.65 0-1.17-.22-1.49-.57-.38-.4-.55-1.03-.55-1.93v-3.22h-.97v-1.3.01zm-3.05 27.78a6.274 6.274 0 01-4.88 2.02 5.96 5.96 0 01-4.67-1.94 7.08 7.08 0 01-1.73-4.9c0-2.06.6-3.75 1.79-5.06a6.184 6.184 0 014.82-1.97c1.97 0 3.53.64 4.72 1.94a7 7 0 011.7 4.87 7.304 7.304 0 01-1.75 5.04zm-13.8-20.78c-1.93 0-3.43-1.32-3.43-3.53 0-2.25 1.47-3.63 3.54-3.63 2.04 0 3.4 1.43 3.4 3.52 0 2.52-1.77 3.64-3.51 3.64zm1.67 11.41h-3.27v6.47c0 1.64.58 2.45 1.73 2.45.53 0 .97-.03 1.32-.12l.08 2.23c-.58.22-1.35.33-2.3.33a3.52 3.52 0 01-2.73-1.06c-.67-.71-1-1.9-1-3.59v-6.7h-1.94v-2.22h1.95V28.4l2.9-.87v3.3h3.26v2.22zm-10.42 9.75c-1.21 1.08-2.88 1.61-5.03 1.61a8.81 8.81 0 01-4.78-1.15l.69-2.46a8.25 8.25 0 004.26 1.15c1.12 0 1.98-.25 2.6-.75.62-.5.93-1.17.93-2.02 0-.74-.26-1.37-.76-1.88a7.24 7.24 0 00-2.55-1.42c-3.23-1.2-4.84-2.97-4.84-5.28 0-1.52.56-2.76 1.7-3.73A6.79 6.79 0 0198 25.42c1.68 0 3.07.3 4.19.87l-.75 2.41a7.321 7.321 0 00-3.54-.85c-1.04 0-1.86.27-2.45.77-.49.46-.73 1.02-.73 1.67 0 .73.28 1.33.84 1.81.5.44 1.4.91 2.68 1.42a8.994 8.994 0 013.51 2.25 4.701 4.701 0 011.12 3.2c0 1.57-.55 2.85-1.63 3.83h-.01zM86.35 21.64c-.89 0-1.68-.34-2.17-1.18h-.03l-.08 1.03h-1.48c.03-.47.06-1.23.06-1.93V11.5h1.73v4.08h.02a2.48 2.48 0 012.2-1.1c1.67 0 2.87 1.4 2.86 3.47 0 2.47-1.56 3.7-3.11 3.7v-.01zM84.32 42.7a5.421 5.421 0 01-4.1 1.74c-1.77 0-3.03-.63-3.8-1.89v6.99h-2.96V35.2c0-1.42-.03-2.88-.1-4.37h2.59l.17 2.1h.05a4.94 4.94 0 014.49-2.37c1.57 0 2.88.62 3.93 1.86a7.31 7.31 0 011.57 4.9c0 2.27-.61 4.05-1.84 5.37v.01zM71.05 21.49h1.73v-10h-1.73v10zm-1.35 21.2a5.42 5.42 0 01-4.1 1.75c-1.76 0-3.03-.63-3.8-1.89v6.99h-2.95V35.2c0-1.42-.04-2.88-.11-4.37h2.6l.16 2.1h.05a4.94 4.94 0 014.5-2.37c1.56 0 2.87.62 3.93 1.86a7.35 7.35 0 011.57 4.9c0 2.27-.61 4.05-1.85 5.37zM58.13 19.6c0-1.72 1.53-2.6 4.06-2.59v-.11c0-.45-.18-1.2-1.39-1.2-.68 0-1.38.21-1.84.51l-.34-1.13c.5-.3 1.4-.6 2.48-.6 2.19 0 2.82 1.4 2.82 2.9v2.46c0 .62.03 1.22.12 1.65h-1.57l-.12-.76h-.04a2.5 2.5 0 01-2.03.91c-1.38 0-2.15-1-2.15-2.04zm-3.57 1.89h-1.7l-2.55-6.86h1.88l1.1 3.48c.2.6.34 1.15.47 1.72h.05c.12-.57.28-1.1.46-1.72l1.1-3.48h1.81l-2.62 6.86zm-.67 22.65l-1.72-5.41h-6l-1.64 5.41h-3.06L47.4 25.7h3.67l5.97 18.45H53.9l-.01-.01zM33 43.44a3.03 3.03 0 01-3.03 3.03h-13a3.03 3.03 0 01-3.03-3.02V14.57a3.04 3.04 0 013.04-3.03h13A3.04 3.04 0 0133 14.57v28.88-.01zM44.53 12h2.2l3.09 9.49h-1.87l-.86-2.7h-3l-.82 2.7H41.5L44.53 12zm22.07 9.5h1.73v-6.86H66.6v6.86zm.87-9.71c.6 0 .96.4.97.94 0 .5-.38.93-.98.93a.92.92 0 01-.96-.93c0-.53.4-.94.97-.94zM77.7 15.7c-.67 0-1.37.21-1.84.51l-.34-1.13c.51-.3 1.4-.6 2.48-.6 2.2 0 2.83 1.4 2.83 2.9v2.46c0 .62.03 1.22.11 1.65h-1.56l-.13-.76h-.04a2.5 2.5 0 01-2.02.91c-1.38 0-2.16-1-2.16-2.04 0-1.72 1.53-2.6 4.07-2.59v-.11c0-.45-.19-1.2-1.4-1.2zm13.73 5.79h1.73v-10h-1.73v10zm7.1-7.01c2.22 0 2.95 1.83 2.95 3.33 0 .33-.03.58-.06.74h-4.59c.05 1.23 1 1.77 2.11 1.77.8 0 1.37-.13 1.9-.31l.26 1.18c-.6.25-1.41.44-2.4.44-2.22 0-3.53-1.37-3.53-3.46 0-1.9 1.16-3.7 3.35-3.7l.01.01zm18.16.15l.09 1.03h.04a2.51 2.51 0 012.2-1.18c1.2 0 2.43.77 2.43 2.94v4.07h-1.73v-3.87c0-.99-.37-1.73-1.3-1.73-.7 0-1.18.49-1.36 1-.06.15-.08.36-.08.56v4.04h-1.73v-4.82c0-.78-.03-1.45-.06-2.04h1.5zm27.47-.15c2.22 0 2.95 1.83 2.95 3.33 0 .33-.03.58-.06.74h-4.58c.04 1.23 1 1.77 2.1 1.77.81 0 1.37-.13 1.9-.31l.26 1.18c-.59.25-1.4.44-2.4.44-2.21 0-3.52-1.37-3.52-3.46 0-1.9 1.15-3.7 3.35-3.7v.01zm-98.1.67c-.18-.57-.34-1.22-.48-1.77h-.02c-.15.55-.3 1.21-.46 1.77l-.73 2.34h2.44l-.75-2.34zm16.13 4.31c.04-.13.04-.25.04-.38v-.94c-1.22-.02-2.39.24-2.39 1.28 0 .67.44.98.99.98.7 0 1.2-.45 1.36-.94zm79.24 13.13c-.97 0-1.75.41-2.36 1.2a4.401 4.401 0 00-.87 2.3h6.16a4.044 4.044 0 00-.58-2.27 2.6 2.6 0 00-2.35-1.23zm-92.27-4.43h-.05c-.2.78-.48 1.94-.88 3.47l-1.54 4.82h4.96l-1.56-4.82c-.17-.5-.48-1.65-.93-3.47zm30.54 4.76c-.73 0-1.38.24-1.98.72a3.4 3.4 0 00-1.16 1.9c-.1.38-.14.67-.14.91v2.22c0 .97.3 1.78.89 2.45.59.66 1.36 1 2.3 1 1.13 0 2-.43 2.61-1.29.63-.86.94-1.99.94-3.4 0-1.29-.3-2.36-.88-3.2a3.05 3.05 0 00-2.58-1.31zm39.3-.19c-1.18 0-2.08.53-2.7 1.59-.53.86-.8 1.93-.8 3.18 0 1.23.27 2.27.8 3.14a2.973 2.973 0 002.69 1.58c1.12 0 2-.53 2.64-1.61.55-.88.83-1.94.83-3.16 0-1.22-.27-2.27-.8-3.14a2.94 2.94 0 00-2.65-1.58H119zm-53.92.19c-.72 0-1.38.24-1.98.72a3.4 3.4 0 00-1.16 1.9c-.1.38-.14.67-.14.91v2.22c0 .97.3 1.78.9 2.45.58.66 1.36 1 2.3 1 1.11 0 1.99-.43 2.6-1.29.63-.86.93-1.99.93-3.4 0-1.29-.28-2.36-.87-3.2a3.05 3.05 0 00-2.58-1.31zm-49.3 7.46h15.38V17.64H15.78v22.74zm7.7 1.35a1.57 1.57 0 000 3.13 1.57 1.57 0 000-3.13zm-1.51-26.4h3c.2 0 .37-.17.37-.36 0-.2-.16-.36-.36-.36h-3.01c-.2 0-.36.16-.36.36 0 .2.16.35.36.35v.01z" fill="#FB3B2D"/><path fill-rule="evenodd" clip-rule="evenodd" d="M7.72 2.35A5.73 5.73 0 002 8.07v41.87a5.73 5.73 0 005.72 5.71H153.4a5.73 5.73 0 005.72-5.71V8.07a5.732 5.732 0 00-5.72-5.72H7.72zm145.68 55.3H7.72A7.73 7.73 0 010 49.94V8.07A7.73 7.73 0 017.72.35H153.4a7.73 7.73 0 017.72 7.72v41.87a7.729 7.729 0 01-7.72 7.71z" fill="#FB3B2D"/></svg>