<svg width="172" height="58" fill="none" xmlns="http://www.w3.org/2000/svg"><path fill-rule="evenodd" clip-rule="evenodd" d="M9.03 2.35a6.47 6.47 0 00-6.47 6.47v40.31c0 3.57 2.9 6.47 6.47 6.47h153.98c3.56 0 6.46-2.9 6.46-6.47V8.82c0-3.57-2.9-6.47-6.46-6.47H9.03zM163.01 57.6H9.03a8.48 8.48 0 01-8.47-8.47V8.82C.56 4.15 4.36.35 9.03.35h153.98c4.66 0 8.46 3.8 8.46 8.47v40.31c0 4.67-3.8 8.47-8.46 8.47z" fill="#FB3B2D"/><path fill-rule="evenodd" clip-rule="evenodd" d="M55.72 15.06c-.234-.65-.434-1.31-.6-1.98h-.06c0 .09-.21.75-.63 1.98h1.29zm1.64 2h-1.14c0-.16-.1-.6-.32-1.33h-1.64a6.874 6.874 0 00-.33 1.33h-1.07c0-.1.28-.85.83-2.27.55-1.42.83-2.2.83-2.35h1.34c0 .14.25.9.75 2.32.5 1.4.75 2.17.75 2.3zm4.57 0h-.87c0-.1-.33-.6-.98-1.54a8.449 8.449 0 01-1.16-2h-.06c.06.52.09.99.09 1.4 0 .59.01 1.3.05 2.14h-.87c.07-1.54.07-3.08 0-4.62h1.05c0 .13.3.63.88 1.5a8.798 8.798 0 011.07 1.9h.05c-.06-.54-.09-1-.09-1.43 0-.64-.01-1.3-.05-1.97h.9a53.28 53.28 0 000 4.62h-.01zm4.17-2.32c0-.45-.13-.83-.4-1.14-.26-.31-.66-.47-1.2-.47l-.42.03c.02.47.03.97.03 1.48 0 .57.01 1.13.04 1.69.15.03.3.04.46.04.5 0 .88-.16 1.13-.47.24-.32.36-.7.36-1.16zm.97-.15c0 .67-.21 1.26-.64 1.76-.43.5-1.04.75-1.81.75-.35 0-.83-.01-1.45-.04a58.34 58.34 0 000-4.62h.62c.283.002.567-.005.85-.02.85 0 1.47.21 1.86.64.38.42.57.94.57 1.53zm3.41-.79c0-.47-.3-.71-.9-.71-.23 0-.42.02-.6.05.03.37.05.84.05 1.43l.33.01c.75 0 1.12-.26 1.12-.78zm1.33 3.26h-1.05a6.96 6.96 0 00-.63-1.55c-.14-.2-.38-.3-.7-.3h-.4c0 .62.01 1.23.03 1.85h-.98a56.49 56.49 0 000-4.62h.61c.357.004.714-.002 1.07-.02 1.09 0 1.63.37 1.63 1.11 0 .6-.31 1-.93 1.24v.05c.24.06.45.25.63.56.18.3.42.86.72 1.68zm4.11-2.29c0-.5-.13-.9-.38-1.2a1.15 1.15 0 00-.94-.46c-.34 0-.63.15-.88.46-.24.3-.36.7-.36 1.17 0 .5.13.9.38 1.2.26.31.57.47.94.47.34 0 .64-.16.88-.47.24-.31.36-.7.36-1.17zm.98-.1c0 .72-.22 1.32-.67 1.8-.44.48-1 .72-1.65.72-.62 0-1.14-.22-1.56-.66-.43-.44-.64-1-.64-1.67 0-.73.23-1.33.67-1.8.45-.49 1-.72 1.65-.72.62 0 1.15.21 1.57.65.42.44.63 1 .63 1.68zm2 2.39h-1a57.4 57.4 0 000-4.62h1a56.67 56.67 0 000 4.62zm4.18-2.32c0-.45-.13-.83-.4-1.14-.26-.31-.67-.47-1.21-.47l-.42.03c.02.47.04.97.04 1.48 0 .57 0 1.13.03 1.69.15.03.3.04.46.04.51 0 .89-.16 1.13-.47.25-.32.37-.7.37-1.16zm.97-.15c0 .67-.22 1.26-.65 1.76-.43.5-1.03.75-1.8.75-.36 0-.84-.01-1.46-.04a56.49 56.49 0 000-4.62h.63c.28.002.56-.005.84-.02.86 0 1.48.21 1.86.64.38.42.58.94.58 1.53zm5.18.47c-.234-.65-.434-1.31-.6-1.98h-.06c0 .09-.21.75-.63 1.98h1.29zm1.64 2h-1.14c0-.16-.1-.6-.32-1.33h-1.64a6.905 6.905 0 00-.33 1.33h-1.07c0-.1.28-.85.83-2.27.55-1.42.83-2.2.83-2.35h1.34c0 .14.25.9.75 2.32.5 1.4.75 2.17.75 2.3zm3.23-3.21c0-.51-.34-.76-1.02-.76-.16 0-.34.02-.53.05.03.45.04.95.04 1.52h.2c.87 0 1.3-.27 1.3-.81h.01zm.9-.2c0 .57-.2.98-.62 1.25a2.8 2.8 0 01-1.79.4c0 .45.02 1.03.04 1.76h-1a55.87 55.87 0 000-4.62h.62c.383.004.767-.003 1.15-.02.45 0 .83.1 1.14.3.31.2.47.52.47.93H95zm3.35.2c0-.51-.34-.76-1.01-.76-.17 0-.35.02-.53.05.02.45.04.95.04 1.52h.2c.86 0 1.3-.27 1.3-.81zm.91-.2c0 .57-.2.98-.63 1.25a2.8 2.8 0 01-1.78.4c0 .45.01 1.03.04 1.76h-1a55.87 55.87 0 000-4.62h.62c.383.004.767-.003 1.15-.02.45 0 .83.1 1.14.3.3.2.46.52.46.93zm5.98 1.12c0-.5-.13-.9-.38-1.2-.25-.31-.57-.46-.94-.46-.34 0-.64.15-.88.46-.24.3-.36.7-.36 1.17 0 .5.13.9.38 1.2.26.31.57.47.94.47.34 0 .64-.16.88-.47.24-.31.36-.7.36-1.17zm.98-.1c0 .72-.22 1.32-.67 1.8-.44.48-1 .72-1.65.72-.62 0-1.15-.22-1.57-.66-.42-.44-.63-1-.63-1.67 0-.73.22-1.33.67-1.8.44-.49 1-.72 1.65-.72.62 0 1.15.21 1.57.65.42.44.63 1 .63 1.68zm4.81 2.39h-.88c0-.1-.33-.6-.98-1.54a8.42 8.42 0 01-1.16-2h-.06c.06.52.1.99.1 1.4 0 .59 0 1.3.04 2.14h-.87c.07-1.54.07-3.08 0-4.62h1.05c0 .13.3.63.88 1.5a8.781 8.781 0 011.07 1.9h.05c-.05-.54-.08-1-.08-1.43 0-.64-.02-1.3-.05-1.97h.89a53.12 53.12 0 000 4.62zm-41.85 14.8c0 2.29-.68 4.12-2.04 5.48a7.95 7.95 0 01-6.03 2.43 8.258 8.258 0 01-6.04-2.47 8.26 8.26 0 01-2.49-6.1c0-2.44.83-4.47 2.49-6.12a8.26 8.26 0 016.04-2.46c1.17 0 2.3.23 3.37.69a6.77 6.77 0 012.56 1.83L65.6 26.6a5.541 5.541 0 00-4.5-1.95c-1.72 0-3.21.6-4.47 1.82a6.28 6.28 0 00-1.9 4.73c0 1.95.63 3.52 1.9 4.74a6.24 6.24 0 004.48 1.82c1.83 0 3.36-.61 4.58-1.83.8-.8 1.25-1.9 1.38-3.33H61.1v-1.97h7.95c.077.409.117.824.12 1.24l.01-.01zm4.07 4.87a3.491 3.491 0 002.57 1.11c1 0 1.86-.37 2.58-1.11a4.03 4.03 0 001.1-2.95c0-1.22-.37-2.2-1.1-2.94a3.498 3.498 0 00-2.58-1.11c-.99 0-1.85.37-2.57 1.1a4.03 4.03 0 00-1.1 2.95c0 1.23.37 2.2 1.1 2.95zm-1.57-7.22a5.48 5.48 0 014.14-1.7c1.69 0 3.07.56 4.16 1.7a5.95 5.95 0 011.62 4.27c0 1.72-.54 3.14-1.63 4.28a5.48 5.48 0 01-4.15 1.7 5.48 5.48 0 01-4.14-1.7 5.952 5.952 0 01-1.63-4.28c0-1.7.54-3.13 1.63-4.27zm13.83 7.22a3.491 3.491 0 002.58 1.11c1 0 1.85-.37 2.58-1.11a4.03 4.03 0 001.09-2.95c0-1.22-.37-2.2-1.1-2.94a3.499 3.499 0 00-2.57-1.11c-1 0-1.85.37-2.58 1.1a4.03 4.03 0 00-1.09 2.95c0 1.23.36 2.2 1.1 2.95h-.01zm-1.57-7.22a5.48 5.48 0 014.15-1.7c1.68 0 3.06.56 4.15 1.7a5.95 5.95 0 011.63 4.27c0 1.72-.55 3.14-1.63 4.28a5.48 5.48 0 01-4.15 1.7 5.481 5.481 0 01-4.15-1.7 5.952 5.952 0 01-1.63-4.28c0-1.7.54-3.13 1.63-4.27zm16.32 8.33c1 0 1.84-.37 2.54-1.1a4.123 4.123 0 001.04-2.96c0-1.23-.35-2.22-1.04-2.95a3.36 3.36 0 00-2.54-1.1c-.98 0-1.82.37-2.52 1.1a4.1 4.1 0 00-1.05 2.95c0 1.23.35 2.2 1.05 2.95.7.74 1.54 1.11 2.52 1.11zm-.16 6.88a5.09 5.09 0 01-3.25-1 5.861 5.861 0 01-1.81-2.28l1.92-.8c.22.6.6 1.12 1.18 1.53.57.42 1.23.62 1.96.62 1.16 0 2.08-.35 2.74-1.04.67-.7 1-1.64 1-2.83v-1.08h-.1c-.36.55-.88 1.01-1.55 1.38a4.94 4.94 0 01-6.03-1.17 6.06 6.06 0 01-1.58-4.27c0-1.7.52-3.11 1.58-4.26a4.95 4.95 0 016.03-1.17c.67.37 1.19.83 1.56 1.38h.09v-1.56h2.02v10.66c0 1.92-.56 3.39-1.68 4.39a5.9 5.9 0 01-4.08 1.5zm7.75-5.32h2.11V22.99h-2.1l-.01 16.41zm12.1-6.97a3.002 3.002 0 00-.88-1.83c-.54-.58-1.35-.87-2.42-.87-.78 0-1.45.24-2.03.73a3.75 3.75 0 00-1.18 1.97h6.51zm-3.02 7.34c-1.7 0-3.08-.57-4.14-1.7a6.01 6.01 0 01-1.6-4.29c0-1.63.52-3.04 1.55-4.22a5.025 5.025 0 013.96-1.76c1.66 0 3 .54 4 1.63 1 1.08 1.5 2.54 1.5 4.35l-.02.4h-8.87a3.799 3.799 0 001.13 2.67c.7.66 1.5 1 2.44 1 1.51 0 2.54-.65 3.07-1.93l1.88.77c-.36.88-.97 1.6-1.8 2.2-.85.58-1.88.88-3.1.88zm13.57-9.04h3.53c.88 0 1.6-.3 2.13-.89.54-.6.8-1.25.8-1.97s-.26-1.38-.8-1.97c-.53-.6-1.25-.9-2.13-.9h-3.53v5.73zm0 8.67h-2.11V22.99h5.6c1.38 0 2.59.46 3.6 1.38a4.521 4.521 0 011.53 3.5c0 1.4-.51 2.57-1.53 3.5a5.189 5.189 0 01-3.6 1.38h-3.5v6.65h.01zm10 0h2.1V22.99h-2.1V39.4zm7.88-1.56c.87 0 1.66-.32 2.37-.97a3.016 3.016 0 001.07-2.3c-.6-.5-1.5-.74-2.68-.74-1.03 0-1.8.22-2.32.66a2.003 2.003 0 00-.78 1.56c0 .55.24.99.71 1.31.47.32 1.02.48 1.63.48zm-.34 1.93c-1.2 0-2.2-.35-3-1.04-.8-.68-1.2-1.6-1.2-2.72 0-1.23.47-2.18 1.42-2.88a5.759 5.759 0 013.5-1.04c1.25 0 2.26.23 3.06.68v-.32a2.5 2.5 0 00-.85-1.98 3.04 3.04 0 00-2.09-.74c-.6 0-1.16.14-1.66.43-.5.3-.84.69-1.02 1.2l-1.93-.83c.26-.67.78-1.3 1.54-1.87a4.92 4.92 0 013.03-.86 5.2 5.2 0 013.57 1.26 4.506 4.506 0 011.42 3.55v6.79h-2.01v-1.56h-.1a4.137 4.137 0 01-3.69 1.93h.01zm10.38 4.58h-2.18l2.61-5.66-4.63-10.52h2.3l3.34 8.07h.05l3.25-8.07h2.3l-7.04 16.18zM13.24 30.91V15.2c0-.65.12-1.23.58-1.72.18-.19.3-.24.52-.02l10.6 10.79 6.88 6.97c.22.22.24.34 0 .57a6505.649 6505.649 0 00-16.84 16.8c-.34.34-.58.3-.91.05a2.131 2.131 0 01-.83-1.81V30.91zm2.02-18.04c.43 0 .73.12 1.02.29l21.54 12.06c.33.18.33.29.07.54l-4.79 4.76c-.17.18-.28.28-.5.04L15.43 13.1l-.18-.23h.01zm1.6 35.58C22.08 43.18 27.3 37.9 32.5 32.63c.32-.32.47-.28.76.02a308.545 308.545 0 004.01 4.08c.24.24.26.34-.06.51l-20.07 11c-.1.07-.2.17-.27.2l-.01.01zm29.78-17.39c-.03.6-.3 1-.73 1.32-.3.23-.65.42-1 .6l-6.06 3.36c-.28.15-.44.14-.66-.1-1.44-1.48-2.89-2.95-4.35-4.41-.2-.21-.22-.33 0-.55 1.7-1.67 3.39-3.35 5.07-5.04.2-.2.34-.22.59-.08l6 3.37c.63.35 1.11.8 1.14 1.53z" fill="#FB3B2D"/></svg>