<svg width="361" height="80" fill="none" xmlns="http://www.w3.org/2000/svg"><path d="M349.626 0c-11.257-.071-27.439 6.886-37.385 7.108-14.801.329-18.857-7.54-25.063-3.514-6.06 4.649 2.273 16.5 3.723 18.157.585.752 1.213 1.47 1.882 2.148l-.033.03a47.492 47.492 0 00-6.959 8.065 48.198 48.198 0 00-3.77 6.208 50.458 50.458 0 00-4.261 12.251c-.92 4.49-1.231 9.079-.447 13.61.701 4.047 2.574 8.053 5.69 10.796 3.489 3.07 8.102 4.608 12.724 4.765a19.89 19.89 0 0011.922-3.482c4.143-2.868 7.149-7.013 9.114-11.615a44.975 44.975 0 002.769-8.948c.699-3.47 1.435-6.933 2.403-10.335.385-1.383.84-2.746 1.373-4.08a18.675 18.675 0 011.95-3.437c.186-.23.382-.456.592-.675a53.765 53.765 0 007.164-.622 42.066 42.066 0 009.409-2.69 31.562 31.562 0 004.8-2.371c6.326-3.686 17.517-13.683 14.076-24.634-1.85-4.99-6.173-6.7-11.673-6.735zM107.013 3.57c-11.313 0-18.92 5.97-18.852 14.415 0 18.605 25.983 11.191 25.983 19.772 0 2.54-2.536 3.852-7.131 3.852-4.8 0-7.06-1.648-7.128-4.874H87.409c0 9.68 6.924 15.034 19.127 15.034 11.86 0 19.95-5.286 19.95-14.003 0-19.496-25.98-11.947-25.98-20.047 0-2.54 2.122-3.98 6.374-3.98 4.317 0 6.305 1.577 6.305 4.942h12.547c0-9.404-7.061-15.11-18.716-15.11h-.003zM0 4.196v10.296h12.51v36.797h12.48v-36.8h12.576V4.196H0zm129.7 0v10.296h12.513v36.797h12.475v-36.8h12.582V4.196H129.7zm45.539 0v47.093h34.549V41.126h-22.074v-8.58h18.716v-9.814h-18.716v-8.376h21.734V4.196h-34.209zm-122.35.003l-16.327 47.09h12.475l2.604-8.717h17.21l2.603 8.717h12.547L67.684 4.199H52.89zm164.726.011v47.08h12.478V35.496h6.102l4.32 8.504c2.331 4.602 5.14 7.62 12.614 7.62 1.757.025 3.509-.19 5.208-.636v-9.375a9.09 9.09 0 01-2.672.34c-1.775 0-2.959-.752-3.906-2.607l-3.157-6.305c4.734-2.607 7.693-7.07 7.693-13.18 0-9.955-6.581-15.65-18.642-15.65l-20.038.003zM60.284 14.015l5.755 19.22H54.455l5.829-19.22zm169.809.204h7.543c3.974 0 6.03 2.335 6.03 5.905 0 3.636-2.056 5.835-6.03 5.835h-7.543v-11.74zm84.412 4.679c-.257.112-.515.222-.769.34a38.793 38.793 0 00-7.966 5.038 33.183 33.183 0 00-5.587 5.558 72.577 72.577 0 00-6.634 10.37l-.109.205c-.645 1.233-.355 2.948.953 3.638 1.225.65 2.959.362 3.633-.954a78.784 78.784 0 014.208-7.07 56.878 56.878 0 011.908-2.69 33.709 33.709 0 015.563-5.44 35.978 35.978 0 017.321-4.326 33.928 33.928 0 017.948-2.177c1.72-.216 3.46-.233 5.184-.05 1.138.189 2.253.498 3.326.924.85.37 1.66.83 2.415 1.369.296.251.574.524.828.817a4.1 4.1 0 01.278.472c.045.13.083.263.113.396 0 .128 0 .252-.006.38-.039.175-.089.35-.148.521-.053.172-.163.297-.255.445-.171.192-.355.37-.547.539-.358.24-.735.452-1.127.631-2.258.86-4.711 1.096-7.004 1.858A14.499 14.499 0 00324 31.63a14.963 14.963 0 00-3.642 3.825c-1.707 2.507-2.731 5.464-3.551 8.364-.888 3.15-1.595 6.35-2.246 9.556a47.626 47.626 0 01-2.5 8.705 28.928 28.928 0 01-3.314 5.775 21.574 21.574 0 01-3.303 3.333 18.124 18.124 0 01-3.385 1.988 17.34 17.34 0 01-3.693 1.008c-1.384.16-2.781.16-4.163 0a19.578 19.578 0 01-4.175-1.111 15.36 15.36 0 01-2.847-1.639c-.731-.6-1.401-1.27-2-2.003a15.434 15.434 0 01-1.66-2.886 20.582 20.582 0 01-1.154-4.385 32.04 32.04 0 01.083-7.736 46.602 46.602 0 013.128-11.286 45.67 45.67 0 014.015-7.313 59.497 59.497 0 012.16-3.016 42.545 42.545 0 017.191-7.165c2.627-2.002 5.456-3.866 8.486-5.19a23.598 23.598 0 015.231-1.464 15.357 15.357 0 011.844-.092z" fill="#000"/></svg>